<mxfile host="app.diagrams.net" modified="2024-02-22T02:54:55.242Z" agent="Mozilla/5.0 (Windows NT 10.0; Win64; x64; rv:123.0) Gecko/20100101 Firefox/123.0" etag="lW0yeDLVIrTyI7Wq3VBC" version="23.1.5" type="device">
  <diagram name="Seite-1" id="LtV1n8RAgdaEJb7KPvsa">
    <mxGraphModel dx="1232" dy="1133" grid="1" gridSize="10" guides="1" tooltips="1" connect="1" arrows="1" fold="1" page="1" pageScale="1" pageWidth="827" pageHeight="1169" math="0" shadow="0">
      <root>
        <mxCell id="0" />
        <mxCell id="1" parent="0" />
        <mxCell id="xyB5NUJhyZ6MZIIeWSto-38" style="rounded=0;orthogonalLoop=1;jettySize=auto;html=1;entryX=0;entryY=0;entryDx=0;entryDy=0;strokeWidth=1;opacity=60;endArrow=none;endFill=0;" edge="1" parent="1" source="xyB5NUJhyZ6MZIIeWSto-18" target="xyB5NUJhyZ6MZIIeWSto-27">
          <mxGeometry relative="1" as="geometry" />
        </mxCell>
        <mxCell id="xyB5NUJhyZ6MZIIeWSto-39" style="rounded=0;orthogonalLoop=1;jettySize=auto;html=1;entryX=0.043;entryY=0.657;entryDx=0;entryDy=0;strokeWidth=6;entryPerimeter=0;endArrow=none;endFill=0;" edge="1" parent="1" source="xyB5NUJhyZ6MZIIeWSto-18" target="xyB5NUJhyZ6MZIIeWSto-3">
          <mxGeometry relative="1" as="geometry" />
        </mxCell>
        <mxCell id="xyB5NUJhyZ6MZIIeWSto-18" value="a&lt;sub&gt;2&lt;/sub&gt;&lt;sup&gt;(0)&lt;/sup&gt;" style="ellipse;whiteSpace=wrap;html=1;" vertex="1" parent="1">
          <mxGeometry x="60" y="670" width="70" height="70" as="geometry" />
        </mxCell>
        <mxCell id="xyB5NUJhyZ6MZIIeWSto-32" style="rounded=0;orthogonalLoop=1;jettySize=auto;html=1;entryX=0;entryY=0;entryDx=0;entryDy=0;opacity=50;endArrow=none;endFill=0;" edge="1" parent="1" source="xyB5NUJhyZ6MZIIeWSto-19" target="xyB5NUJhyZ6MZIIeWSto-27">
          <mxGeometry relative="1" as="geometry" />
        </mxCell>
        <mxCell id="xyB5NUJhyZ6MZIIeWSto-33" style="rounded=0;orthogonalLoop=1;jettySize=auto;html=1;entryX=0.057;entryY=0.743;entryDx=0;entryDy=0;entryPerimeter=0;strokeWidth=6;endArrow=none;endFill=0;" edge="1" parent="1" source="xyB5NUJhyZ6MZIIeWSto-19" target="xyB5NUJhyZ6MZIIeWSto-3">
          <mxGeometry relative="1" as="geometry" />
        </mxCell>
        <mxCell id="xyB5NUJhyZ6MZIIeWSto-19" value="a&lt;sub&gt;3&lt;/sub&gt;&lt;sup&gt;(0)&lt;/sup&gt;" style="ellipse;whiteSpace=wrap;html=1;" vertex="1" parent="1">
          <mxGeometry x="60" y="770" width="70" height="70" as="geometry" />
        </mxCell>
        <mxCell id="xyB5NUJhyZ6MZIIeWSto-20" value="" style="ellipse;whiteSpace=wrap;html=1;" vertex="1" parent="1">
          <mxGeometry x="230" y="720" width="70" height="70" as="geometry" />
        </mxCell>
        <mxCell id="xyB5NUJhyZ6MZIIeWSto-21" style="rounded=0;orthogonalLoop=1;jettySize=auto;html=1;entryX=0;entryY=0;entryDx=0;entryDy=0;strokeWidth=1;shadow=0;opacity=60;endArrow=none;endFill=0;" edge="1" parent="1" source="xyB5NUJhyZ6MZIIeWSto-18" target="xyB5NUJhyZ6MZIIeWSto-20">
          <mxGeometry relative="1" as="geometry" />
        </mxCell>
        <mxCell id="xyB5NUJhyZ6MZIIeWSto-23" style="rounded=0;orthogonalLoop=1;jettySize=auto;html=1;entryX=0;entryY=1;entryDx=0;entryDy=0;opacity=50;endArrow=none;endFill=0;" edge="1" parent="1" source="xyB5NUJhyZ6MZIIeWSto-19" target="xyB5NUJhyZ6MZIIeWSto-20">
          <mxGeometry relative="1" as="geometry" />
        </mxCell>
        <mxCell id="xyB5NUJhyZ6MZIIeWSto-42" style="rounded=0;orthogonalLoop=1;jettySize=auto;html=1;entryX=0;entryY=0;entryDx=0;entryDy=0;opacity=50;exitX=0.957;exitY=0.786;exitDx=0;exitDy=0;exitPerimeter=0;endArrow=none;endFill=0;" edge="1" parent="1" source="xyB5NUJhyZ6MZIIeWSto-1" target="xyB5NUJhyZ6MZIIeWSto-20">
          <mxGeometry relative="1" as="geometry" />
        </mxCell>
        <mxCell id="xyB5NUJhyZ6MZIIeWSto-43" style="rounded=0;orthogonalLoop=1;jettySize=auto;html=1;entryX=0;entryY=0;entryDx=0;entryDy=0;exitX=1;exitY=1;exitDx=0;exitDy=0;opacity=50;endArrow=none;endFill=0;" edge="1" parent="1" source="xyB5NUJhyZ6MZIIeWSto-1" target="xyB5NUJhyZ6MZIIeWSto-27">
          <mxGeometry relative="1" as="geometry" />
        </mxCell>
        <mxCell id="xyB5NUJhyZ6MZIIeWSto-1" value="a&lt;sub&gt;0&lt;/sub&gt;&lt;sup&gt;(0)&lt;/sup&gt;" style="ellipse;whiteSpace=wrap;html=1;" vertex="1" parent="1">
          <mxGeometry x="60" y="470" width="70" height="70" as="geometry" />
        </mxCell>
        <mxCell id="xyB5NUJhyZ6MZIIeWSto-40" style="rounded=0;orthogonalLoop=1;jettySize=auto;html=1;entryX=0;entryY=0;entryDx=0;entryDy=0;opacity=50;endArrow=none;endFill=0;" edge="1" parent="1" source="xyB5NUJhyZ6MZIIeWSto-2" target="xyB5NUJhyZ6MZIIeWSto-20">
          <mxGeometry relative="1" as="geometry" />
        </mxCell>
        <mxCell id="xyB5NUJhyZ6MZIIeWSto-41" style="rounded=0;orthogonalLoop=1;jettySize=auto;html=1;entryX=0;entryY=0;entryDx=0;entryDy=0;opacity=50;endArrow=none;endFill=0;" edge="1" parent="1" source="xyB5NUJhyZ6MZIIeWSto-2" target="xyB5NUJhyZ6MZIIeWSto-27">
          <mxGeometry relative="1" as="geometry" />
        </mxCell>
        <mxCell id="xyB5NUJhyZ6MZIIeWSto-2" value="a&lt;sub&gt;1&lt;/sub&gt;&lt;sup&gt;(0)&lt;/sup&gt;" style="ellipse;whiteSpace=wrap;html=1;" vertex="1" parent="1">
          <mxGeometry x="60" y="570" width="70" height="70" as="geometry" />
        </mxCell>
        <mxCell id="xyB5NUJhyZ6MZIIeWSto-3" value="" style="ellipse;whiteSpace=wrap;html=1;fillColor=#c0c0c0;" vertex="1" parent="1">
          <mxGeometry x="230" y="520" width="70" height="70" as="geometry" />
        </mxCell>
        <mxCell id="xyB5NUJhyZ6MZIIeWSto-6" style="rounded=0;orthogonalLoop=1;jettySize=auto;html=1;strokeWidth=6;endArrow=none;endFill=0;entryX=0.014;entryY=0.357;entryDx=0;entryDy=0;entryPerimeter=0;" edge="1" parent="1" source="xyB5NUJhyZ6MZIIeWSto-1" target="xyB5NUJhyZ6MZIIeWSto-3">
          <mxGeometry relative="1" as="geometry">
            <mxPoint x="240" y="540" as="targetPoint" />
          </mxGeometry>
        </mxCell>
        <mxCell id="xyB5NUJhyZ6MZIIeWSto-5" style="rounded=0;orthogonalLoop=1;jettySize=auto;html=1;entryX=0;entryY=0.5;entryDx=0;entryDy=0;strokeWidth=6;endArrow=none;endFill=0;" edge="1" parent="1" source="xyB5NUJhyZ6MZIIeWSto-2" target="xyB5NUJhyZ6MZIIeWSto-3">
          <mxGeometry relative="1" as="geometry" />
        </mxCell>
        <mxCell id="xyB5NUJhyZ6MZIIeWSto-35" style="rounded=0;orthogonalLoop=1;jettySize=auto;html=1;entryX=0;entryY=1;entryDx=0;entryDy=0;opacity=50;endArrow=none;endFill=0;" edge="1" parent="1" source="xyB5NUJhyZ6MZIIeWSto-25" target="xyB5NUJhyZ6MZIIeWSto-20">
          <mxGeometry relative="1" as="geometry" />
        </mxCell>
        <mxCell id="xyB5NUJhyZ6MZIIeWSto-37" style="rounded=0;orthogonalLoop=1;jettySize=auto;html=1;entryX=0;entryY=1;entryDx=0;entryDy=0;strokeWidth=6;endArrow=none;endFill=0;" edge="1" parent="1" source="xyB5NUJhyZ6MZIIeWSto-25" target="xyB5NUJhyZ6MZIIeWSto-3">
          <mxGeometry relative="1" as="geometry" />
        </mxCell>
        <mxCell id="xyB5NUJhyZ6MZIIeWSto-25" value="a&lt;sub&gt;4&lt;/sub&gt;&lt;sup&gt;(0)&lt;/sup&gt;" style="ellipse;whiteSpace=wrap;html=1;" vertex="1" parent="1">
          <mxGeometry x="60" y="870" width="70" height="70" as="geometry" />
        </mxCell>
        <mxCell id="xyB5NUJhyZ6MZIIeWSto-34" style="rounded=0;orthogonalLoop=1;jettySize=auto;html=1;exitX=1;exitY=0.5;exitDx=0;exitDy=0;entryX=0;entryY=1;entryDx=0;entryDy=0;opacity=50;endArrow=none;endFill=0;" edge="1" parent="1" source="xyB5NUJhyZ6MZIIeWSto-26" target="xyB5NUJhyZ6MZIIeWSto-20">
          <mxGeometry relative="1" as="geometry" />
        </mxCell>
        <mxCell id="xyB5NUJhyZ6MZIIeWSto-36" style="rounded=0;orthogonalLoop=1;jettySize=auto;html=1;entryX=0.286;entryY=0.971;entryDx=0;entryDy=0;exitX=1;exitY=0;exitDx=0;exitDy=0;entryPerimeter=0;strokeWidth=6;endArrow=none;endFill=0;" edge="1" parent="1" source="xyB5NUJhyZ6MZIIeWSto-26" target="xyB5NUJhyZ6MZIIeWSto-3">
          <mxGeometry relative="1" as="geometry" />
        </mxCell>
        <mxCell id="xyB5NUJhyZ6MZIIeWSto-26" value="a&lt;sub&gt;5&lt;/sub&gt;&lt;sup&gt;(0)&lt;/sup&gt;" style="ellipse;whiteSpace=wrap;html=1;" vertex="1" parent="1">
          <mxGeometry x="60" y="970" width="70" height="70" as="geometry" />
        </mxCell>
        <mxCell id="xyB5NUJhyZ6MZIIeWSto-27" value="" style="ellipse;whiteSpace=wrap;html=1;" vertex="1" parent="1">
          <mxGeometry x="230" y="920" width="70" height="70" as="geometry" />
        </mxCell>
        <mxCell id="xyB5NUJhyZ6MZIIeWSto-28" style="rounded=0;orthogonalLoop=1;jettySize=auto;html=1;entryX=0;entryY=0;entryDx=0;entryDy=0;opacity=50;endArrow=none;endFill=0;" edge="1" parent="1" source="xyB5NUJhyZ6MZIIeWSto-25" target="xyB5NUJhyZ6MZIIeWSto-27">
          <mxGeometry relative="1" as="geometry" />
        </mxCell>
        <mxCell id="xyB5NUJhyZ6MZIIeWSto-30" style="rounded=0;orthogonalLoop=1;jettySize=auto;html=1;entryX=0;entryY=1;entryDx=0;entryDy=0;opacity=50;endArrow=none;endFill=0;" edge="1" parent="1" source="xyB5NUJhyZ6MZIIeWSto-26" target="xyB5NUJhyZ6MZIIeWSto-27">
          <mxGeometry relative="1" as="geometry" />
        </mxCell>
      </root>
    </mxGraphModel>
  </diagram>
</mxfile>
